<?xml version="1.0" encoding="utf-8"?>
<!-- Generator: Adobe Illustrator 18.1.0, SVG Export Plug-In . SVG Version: 6.00 Build 0)  -->
<svg version="1.1" id="Layer_1" xmlns="http://www.w3.org/2000/svg" xmlns:xlink="http://www.w3.org/1999/xlink" x="0px" y="0px"
	 viewBox="0 0 140 60" enable-background="new 0 0 140 60" xml:space="preserve">
<g>
	<text transform="matrix(1 0 0 1 6.8142 48.517)" font-family="'BlackCasper'" font-size="48">PickMe</text>
	<g>
		<path fill="#FFFFFF" d="M34.4,12.3c2.4-2.2,8.4-8.6,11.4-6.8c2.6,1.7,1.5,11.4,0.4,14.6c-1.2,3.6-6.4,3.9-9.6,1.7
			C33.3,19.7,31.7,14.8,34.4,12.3z"/>
		<path d="M34.4,12.2c0,0,0.6-0.6,1.6-1.5c1-1,2.4-2.4,4.4-3.8c1-0.7,2.1-1.5,3.5-1.8c0.7-0.1,1.5-0.2,2.2,0.4
			c0.1,0.1,0.3,0.2,0.4,0.4l0.3,0.5c0.1,0.4,0.3,0.7,0.4,1.1c0.4,1.5,0.5,3.1,0.5,4.7c0,1.6-0.2,3.2-0.4,4.8
			c-0.1,0.8-0.3,1.6-0.5,2.4c-0.1,0.4-0.2,0.8-0.4,1.2c-0.1,0.4-0.4,0.8-0.6,1.1c-1.1,1.4-2.8,1.9-4.4,2c-1.6,0-3.1-0.3-4.4-1
			c-1.3-0.7-2.2-1.7-2.9-2.8c-0.7-1.1-1-2.1-1.2-3.1c-0.1-1,0-1.9,0.2-2.5c0.2-0.7,0.6-1.1,0.8-1.4C34.3,12.4,34.4,12.2,34.4,12.2z
			 M34.5,12.3c0,0-0.1,0.1-0.4,0.4c-0.2,0.3-0.5,0.8-0.7,1.4c-0.2,0.7-0.3,1.5-0.1,2.5c0.2,0.9,0.6,2,1.3,2.9
			c0.7,0.9,1.6,1.8,2.8,2.4c1.2,0.6,2.6,0.9,4,0.9c1.4-0.1,2.9-0.5,3.8-1.7c0.2-0.3,0.4-0.5,0.6-0.9c0.1-0.3,0.3-0.7,0.4-1.1
			c0.2-0.8,0.4-1.5,0.5-2.3c0.3-1.6,0.4-3.2,0.5-4.7c0-1.6,0-3.1-0.4-4.5c-0.1-0.4-0.2-0.7-0.4-1l-0.3-0.4c-0.1-0.1-0.3-0.3-0.4-0.4
			c-0.5-0.4-1.2-0.5-1.9-0.3c-1.3,0.3-2.4,1-3.4,1.7c-2,1.4-3.4,2.8-4.4,3.7C35,11.7,34.5,12.3,34.5,12.3z"/>
	</g>
</g>
</svg>
