<?xml version="1.0" encoding="utf-8"?>
<!-- Generator: Adobe Illustrator 18.1.0, SVG Export Plug-In . SVG Version: 6.00 Build 0)  -->
<svg version="1.1" id="Layer_1" xmlns="http://www.w3.org/2000/svg" xmlns:xlink="http://www.w3.org/1999/xlink" x="0px" y="0px"
	 viewBox="0 0 60 60" enable-background="new 0 0 60 60" xml:space="preserve">
<g>
	<g>
		<path fill="#FFFFFF" d="M11.6,23.6C18.8,16.9,37.2-2.6,46.1,3c8,5.1,4.5,34.5,1.1,44.4c-3.8,10.8-19.5,11.8-29.3,5.3
			S3.2,31.4,11.6,23.6z"/>
		<path d="M11.3,23.4c0,0,0.4-0.4,1.3-1.2c0.8-0.8,2.1-1.9,3.6-3.4c1.5-1.5,3.4-3.3,5.5-5.4c2.2-2.1,4.6-4.4,7.5-6.7
			c1.5-1.2,3-2.3,4.8-3.4c1.8-1.1,3.7-2.1,6-2.6c1.2-0.3,2.4-0.4,3.7-0.3C45,0.5,46.4,1,47.6,1.8l0.3,0.2l0.4,0.4
			c0.3,0.3,0.6,0.6,0.8,0.8c0.4,0.5,0.8,1.1,1.1,1.7c0.6,1.1,1.1,2.3,1.4,3.5c0.7,2.4,1.1,4.8,1.3,7.2c0.2,2.4,0.3,4.9,0.3,7.4
			c0,4.9-0.4,9.9-1.1,14.9c-0.3,2.5-0.7,5-1.3,7.5c-0.1,0.6-0.3,1.3-0.5,1.9l-0.3,1l0,0.1c0,0.1,0.1-0.2-0.1,0.3l0,0.1L49.9,49
			l-0.2,0.4l-0.3,0.8l-0.2,0.4l-0.3,0.5c-0.4,0.7-0.8,1.5-1.3,2.1c-1.8,2.5-4.3,4.2-6.9,5.3c-2.6,1.1-5.3,1.6-8,1.8
			c-2.6,0.1-5.2-0.2-7.6-0.8c-2.4-0.6-4.7-1.6-6.8-2.7c-0.5-0.3-1-0.7-1.5-1l-0.9-0.6l-0.6-0.5c-0.4-0.3-0.8-0.7-1.2-1
			c-0.4-0.4-0.8-0.8-1.3-1.3c-0.4-0.4-0.8-0.8-1.1-1.3c-0.3-0.4-0.7-0.9-1-1.3c-0.6-0.9-1.2-1.7-1.6-2.6c-1.9-3.6-2.8-7.1-3-10.3
			c-0.2-3.2,0.3-5.9,1.2-8c0.2-0.5,0.4-1,0.7-1.4c0.2-0.4,0.4-0.9,0.7-1.2c0.3-0.3,0.5-0.7,0.7-1c0.2-0.3,0.4-0.6,0.6-0.8
			C10.9,23.8,11.3,23.4,11.3,23.4z M11.8,23.9c0,0-0.4,0.4-1.1,1.3c-0.4,0.4-0.7,1-1.1,1.7c-0.2,0.3-0.3,0.8-0.5,1.2
			c-0.2,0.4-0.4,0.9-0.4,1.4c-0.5,2-0.6,4.5,0.2,7.2c0.8,2.7,2.3,5.5,4.5,8c0.5,0.7,1.2,1.2,1.7,1.8c0.3,0.3,0.6,0.6,1,0.8
			c0.3,0.3,0.6,0.6,1,0.8c0.3,0.2,0.6,0.5,1,0.7c0.4,0.3,0.8,0.5,1.3,0.8l0.6,0.4c0,0-0.2-0.2-0.1-0.1l0,0l0.1,0l0.1,0.1l0.3,0.2
			c0.4,0.2,0.8,0.4,1.2,0.6c1.6,0.7,3.4,1.3,5.3,1.7c1.9,0.3,3.8,0.6,5.7,0.5c3.8-0.2,7.7-1.3,10.1-4c0.3-0.3,0.4-0.6,0.7-0.9
			l0.2-0.2l0.2-0.4l0.4-0.8l0.2-0.4l0.1-0.2l0-0.1c-0.2,0.4,0,0.1-0.1,0.2l0-0.1l0.3-0.8c0.2-0.5,0.4-1.1,0.5-1.6
			c0.7-2.2,1.2-4.5,1.7-6.8c0.9-4.7,1.5-9.4,1.8-14.1c0.2-4.6,0.2-9.3-0.8-13.4c-0.5-2-1.3-3.9-2.4-4.8c-1.2-1-2.9-1.2-4.7-0.9
			c-1.8,0.3-3.6,1-5.3,1.8c-1.7,0.8-3.3,1.7-4.9,2.7c-3.1,1.9-5.7,3.9-8,5.8c-1.1,0.9-2.2,1.8-3.2,2.7c-0.9,0.9-1.8,1.7-2.6,2.4
			c-1.6,1.4-2.7,2.7-3.6,3.4C12.2,23.5,11.8,23.9,11.8,23.9z"/>
	</g>
</g>
</svg>
